<?xml version="1.0" encoding="UTF-8" standalone="no"?>
<svg
   xmlns:dc="http://purl.org/dc/elements/1.1/"
   xmlns:cc="http://creativecommons.org/ns#"
   xmlns:rdf="http://www.w3.org/1999/02/22-rdf-syntax-ns#"
   xmlns:svg="http://www.w3.org/2000/svg"
   xmlns="http://www.w3.org/2000/svg"
   version="1.1"
   id="svg2"
   viewBox="0 0 141.73229 141.73228"
   height="40mm"
   width="40mm">
  <defs
     id="defs4" />
  <metadata
     id="metadata7">
    <rdf:RDF>
      <cc:Work
         rdf:about="">
        <dc:format>image/svg+xml</dc:format>
        <dc:type
           rdf:resource="http://purl.org/dc/dcmitype/StillImage" />
        <dc:title></dc:title>
      </cc:Work>
    </rdf:RDF>
  </metadata>
  <g
     transform="translate(-322.293,-465.60952)"
     id="layer1">
    <g
       transform="translate(5.2567842,-5.2567633)"
       id="text3338"
       style="font-style:normal;font-variant:normal;font-weight:normal;font-stretch:normal;font-size:72.91575623px;line-height:125%;font-family:Edmondsans;-inkscape-font-specification:'Edmondsans, Normal';text-align:start;letter-spacing:0px;word-spacing:0px;writing-mode:lr-tb;text-anchor:start;fill:#000000;fill-opacity:1;stroke:none;stroke-width:1px;stroke-linecap:butt;stroke-linejoin:miter;stroke-opacity:1">
      <path
         d="m 395.26693,542.68088 -8.02074,-6.41659 c -3.28121,3.57287 -7.29157,6.05201 -12.10401,6.05201 -8.67698,0 -15.38523,-6.99991 -15.38523,-16.26022 0,-9.11447 6.70825,-16.18729 15.38523,-16.18729 4.73952,0 8.67697,2.40622 11.88527,5.76034 l 7.72907,-6.70825 c -4.95828,-5.76034 -11.37486,-9.04155 -19.54143,-9.04155 -14.43732,0 -25.95801,11.81235 -25.95801,26.17675 0,14.51024 11.37486,26.24968 25.95801,26.24968 8.74989,0 15.16648,-3.79162 20.05184,-9.62488 z m -23.00521,-66.55783 c -12.80659,0 -25.61331,4.87111 -35.35547,14.61328 -19.48434,19.48434 -19.48434,51.22661 0,70.71094 17.46757,17.46756 44.78014,19.26364 64.28711,5.41211 l 40.48242,40.48242 11.83594,-11.83594 -40.48242,-40.48242 c 13.851,-19.50693 12.05525,-46.81975 -5.41211,-64.28711 -9.74217,-9.74217 -22.54888,-14.61328 -35.35547,-14.61328 z m 0,9.9375 c 10.22642,0 20.45373,3.91662 28.28516,11.74804 15.66284,15.66284 15.66284,40.90551 0,56.56836 -15.66285,15.66285 -40.90552,15.66284 -56.56836,0 -15.66285,-15.66285 -15.66286,-40.90551 0,-56.56836 7.83142,-7.83142 18.05677,-11.74804 28.2832,-11.74804 z"
         id="path3354" />
    </g>
  </g>
</svg>
